# xmcd
#
# Track frame offsets:
#	150
#	16230
#	34320
#	53521
#	70501
#	89179
#	111335
#	130940
#	151366
#	162526
#	186213
#
# Disc length: 2671 seconds
#
# Revision: 0
# Processed by: cddbd v1.5.2PL0 Copyright (c) Steve Scherf et al.
# Submitted via: EZCDAudioConverter 1.3.4.1
#
DISCID=930a6d0b
DTITLE=Melody's Echo Chamber - Melody's Echo Chamber (2012)
DYEAR=1900
DGENRE=
TTITLE0=I Follow You
TTITLE1=Crystallized
TTITLE2=You Won't Be Missing That Part Of Me
TTITLE3=Some Time Alone, Alone
TTITLE4=Bisou Magique
TTITLE5=Endless Shore
TTITLE6=Quand Vas Tu Rentrer?
TTITLE7=Mount Hopeless
TTITLE8=Is That What You Said
TTITLE9=Snowcapped Andes Crash
TTITLE10=Be Proud Of Your Kids
EXTD=
EXTT0=
EXTT1=
EXTT2=
EXTT3=
EXTT4=
EXTT5=
EXTT6=
EXTT7=
EXTT8=
EXTT9=
EXTT10=
PLAYORDER=
